<?xml version="1.0" encoding="UTF-8" standalone="no"?>
<svg
   xmlns:dc="http://purl.org/dc/elements/1.1/"
   xmlns:cc="http://creativecommons.org/ns#"
   xmlns:rdf="http://www.w3.org/1999/02/22-rdf-syntax-ns#"
   xmlns:svg="http://www.w3.org/2000/svg"
   xmlns="http://www.w3.org/2000/svg"
   viewBox="0 0 666.66669 666.66669"
   height="666.66669"
   width="666.66669"
   xml:space="preserve"
   id="svg2"
   version="1.1"><metadata
     id="metadata8"><rdf:RDF><cc:Work
         rdf:about=""><dc:format>image/svg+xml</dc:format><dc:type
           rdf:resource="http://purl.org/dc/dcmitype/StillImage" /></cc:Work></rdf:RDF></metadata><defs
     id="defs6"><clipPath
       id="clipPath22"
       clipPathUnits="userSpaceOnUse"><path
         id="path20"
         d="M 0,500 H 500 V 0 H 0 Z" /></clipPath><clipPath
       id="clipPath38"
       clipPathUnits="userSpaceOnUse"><path
         id="path36"
         d="M 0,500 H 500 V 0 H 0 Z" /></clipPath></defs><g
     transform="matrix(1.3333333,0,0,-1.3333333,0,666.66667)"
     id="g10"><g
       transform="translate(115,196)"
       id="g12"><path
         id="path14"
         style="fill:#000000;fill-opacity:1;fill-rule:nonzero;stroke:none"
         d="m 0,0 v 121 h 57 l 17.5,-72.5 20,72 h 53 v -121 h -38 v 82 l -21,-82 h -29 l -23,81 v -81 z" /></g><g
       id="g16"><g
         clip-path="url(#clipPath22)"
         id="g18"><g
           transform="translate(381,195)"
           id="g24"><path
             id="path26"
             style="fill:#000000;fill-opacity:1;fill-rule:nonzero;stroke:none"
             d="M 0,0 V 95 H -35 V 40 c 0,0 0,-16 -16,-15 -6,0 -12,2 -12,16 V 95 H -96 V 27 c 0,0 0.935,-24.949 23,-26 10.5,-0.5 28.5,-2.5 43.5,15.5 v -1 -15 z" /></g></g></g><text
       id="text30"
       style="font-variant:normal;font-weight:normal;font-stretch:normal;font-size:37px;font-family:'Lantinghei SC';-inkscape-font-specification:FZLTZHK--GBK1-0;writing-mode:lr-tb;fill:#000000;fill-opacity:1;fill-rule:nonzero;stroke:none"
       transform="matrix(1,0,0,-1,280,306.9102)"><tspan
         id="tspan28"
         y="0"
         x="0 30.488001 55.203999 64.898003 89.762001">China</tspan></text>
<g
       id="g32"><g
         clip-path="url(#clipPath38)"
         id="g34"><g
           transform="translate(473.5,248.5)"
           id="g40"><path
             id="path42"
             style="fill:none;stroke:#000000;stroke-width:14;stroke-linecap:butt;stroke-linejoin:miter;stroke-miterlimit:10;stroke-dasharray:none;stroke-opacity:1"
             d="m 0,0 c 0,-123.712 -100.288,-224 -224,-224 -123.712,0 -224,100.288 -224,224 0,123.712 100.288,224 224,224 C -100.288,224 0,123.712 0,0 Z" /></g></g></g></g></svg>